# Tiled2Unity generated file. Do not modify by hand.
# Wavefront file for 'Level_1-2_mesh_0002.obj'

# Vertices (Count = 592)
v 0 -1 0
v -1 -1 0
v -1 0 0
v 0 0 0
v -1 -1 0
v -2 -1 0
v -2 0 0
v -1 0 0
v -2 -1 0
v -3 -1 0
v -3 0 0
v -2 0 0
v -3 -1 0
v -4 -1 0
v -4 0 0
v -3 0 0
v -4 -1 0
v -5 -1 0
v -5 0 0
v -4 0 0
v -5 -1 0
v -6 -1 0
v -6 0 0
v -5 0 0
v -6 -1 0
v -7 -1 0
v -7 0 0
v -6 0 0
v -7 -1 0
v -8 -1 0
v -8 0 0
v -7 0 0
v -8 -1 0
v -9 -1 0
v -9 0 0
v -8 0 0
v -9 -1 0
v -10 -1 0
v -10 0 0
v -9 0 0
v -10 -1 0
v -11 -1 0
v -11 0 0
v -10 0 0
v -11 -1 0
v -12 -1 0
v -12 0 0
v -11 0 0
v -12 -1 0
v -13 -1 0
v -13 0 0
v -12 0 0
v -13 -1 0
v -14 -1 0
v -14 0 0
v -13 0 0
v -14 -1 0
v -15 -1 0
v -15 0 0
v -14 0 0
v -15 -1 0
v -16 -1 0
v -16 0 0
v -15 0 0
v -16 -1 0
v -17 -1 0
v -17 0 0
v -16 0 0
v -17 -1 0
v -18 -1 0
v -18 0 0
v -17 0 0
v -18 -1 0
v -19 -1 0
v -19 0 0
v -18 0 0
v -19 -1 0
v -20 -1 0
v -20 0 0
v -19 0 0
v 0 -2 0
v -1 -2 0
v -1 -1 0
v 0 -1 0
v -1 -2 0
v -2 -2 0
v -2 -1 0
v -1 -1 0
v -2 -2 0
v -3 -2 0
v -3 -1 0
v -2 -1 0
v -3 -2 0
v -4 -2 0
v -4 -1 0
v -3 -1 0
v -4 -2 0
v -5 -2 0
v -5 -1 0
v -4 -1 0
v -5 -2 0
v -6 -2 0
v -6 -1 0
v -5 -1 0
v -6 -2 0
v -7 -2 0
v -7 -1 0
v -6 -1 0
v -7 -2 0
v -8 -2 0
v -8 -1 0
v -7 -1 0
v -8 -2 0
v -9 -2 0
v -9 -1 0
v -8 -1 0
v -9 -2 0
v -10 -2 0
v -10 -1 0
v -9 -1 0
v -10 -2 0
v -11 -2 0
v -11 -1 0
v -10 -1 0
v -11 -2 0
v -12 -2 0
v -12 -1 0
v -11 -1 0
v -12 -2 0
v -13 -2 0
v -13 -1 0
v -12 -1 0
v -13 -2 0
v -14 -2 0
v -14 -1 0
v -13 -1 0
v -14 -2 0
v -15 -2 0
v -15 -1 0
v -14 -1 0
v -15 -2 0
v -16 -2 0
v -16 -1 0
v -15 -1 0
v -16 -2 0
v -17 -2 0
v -17 -1 0
v -16 -1 0
v -17 -2 0
v -18 -2 0
v -18 -1 0
v -17 -1 0
v -18 -2 0
v -19 -2 0
v -19 -1 0
v -18 -1 0
v -19 -2 0
v -20 -2 0
v -20 -1 0
v -19 -1 0
v 0 -3 0
v -1 -3 0
v -1 -2 0
v 0 -2 0
v -1 -3 0
v -2 -3 0
v -2 -2 0
v -1 -2 0
v -2 -3 0
v -3 -3 0
v -3 -2 0
v -2 -2 0
v -3 -3 0
v -4 -3 0
v -4 -2 0
v -3 -2 0
v -4 -3 0
v -5 -3 0
v -5 -2 0
v -4 -2 0
v -5 -3 0
v -6 -3 0
v -6 -2 0
v -5 -2 0
v -6 -3 0
v -7 -3 0
v -7 -2 0
v -6 -2 0
v -7 -3 0
v -8 -3 0
v -8 -2 0
v -7 -2 0
v -8 -3 0
v -9 -3 0
v -9 -2 0
v -8 -2 0
v -9 -3 0
v -10 -3 0
v -10 -2 0
v -9 -2 0
v -10 -3 0
v -11 -3 0
v -11 -2 0
v -10 -2 0
v -11 -3 0
v -12 -3 0
v -12 -2 0
v -11 -2 0
v -12 -3 0
v -13 -3 0
v -13 -2 0
v -12 -2 0
v -13 -3 0
v -14 -3 0
v -14 -2 0
v -13 -2 0
v -14 -3 0
v -15 -3 0
v -15 -2 0
v -14 -2 0
v -15 -3 0
v -16 -3 0
v -16 -2 0
v -15 -2 0
v -16 -3 0
v -17 -3 0
v -17 -2 0
v -16 -2 0
v -17 -3 0
v -18 -3 0
v -18 -2 0
v -17 -2 0
v -18 -3 0
v -19 -3 0
v -19 -2 0
v -18 -2 0
v -19 -3 0
v -20 -3 0
v -20 -2 0
v -19 -2 0
v 0 -4 0
v -1 -4 0
v -1 -3 0
v 0 -3 0
v -19 -4 0
v -20 -4 0
v -20 -3 0
v -19 -3 0
v 0 -5 0
v -1 -5 0
v -1 -4 0
v 0 -4 0
v -19 -5 0
v -20 -5 0
v -20 -4 0
v -19 -4 0
v 0 -6 0
v -1 -6 0
v -1 -5 0
v 0 -5 0
v -19 -6 0
v -20 -6 0
v -20 -5 0
v -19 -5 0
v 0 -7 0
v -1 -7 0
v -1 -6 0
v 0 -6 0
v -19 -7 0
v -20 -7 0
v -20 -6 0
v -19 -6 0
v 0 -8 0
v -1 -8 0
v -1 -7 0
v 0 -7 0
v -19 -8 0
v -20 -8 0
v -20 -7 0
v -19 -7 0
v 0 -9 0
v -1 -9 0
v -1 -8 0
v 0 -8 0
v -19 -9 0
v -20 -9 0
v -20 -8 0
v -19 -8 0
v 0 -10 0
v -1 -10 0
v -1 -9 0
v 0 -9 0
v -19 -10 0
v -20 -10 0
v -20 -9 0
v -19 -9 0
v 0 -11 0
v -1 -11 0
v -1 -10 0
v 0 -10 0
v -19 -11 0
v -20 -11 0
v -20 -10 0
v -19 -10 0
v 0 -12 0
v -1 -12 0
v -1 -11 0
v 0 -11 0
v -19 -12 0
v -20 -12 0
v -20 -11 0
v -19 -11 0
v 0 -13 0
v -1 -13 0
v -1 -12 0
v 0 -12 0
v -19 -13 0
v -20 -13 0
v -20 -12 0
v -19 -12 0
v 0 -14 0
v -1 -14 0
v -1 -13 0
v 0 -13 0
v -19 -14 0
v -20 -14 0
v -20 -13 0
v -19 -13 0
v 0 -15 0
v -1 -15 0
v -1 -14 0
v 0 -14 0
v -19 -15 0
v -20 -15 0
v -20 -14 0
v -19 -14 0
v 0 -16 0
v -1 -16 0
v -1 -15 0
v 0 -15 0
v -19 -16 0
v -20 -16 0
v -20 -15 0
v -19 -15 0
v 0 -17 0
v -1 -17 0
v -1 -16 0
v 0 -16 0
v -19 -17 0
v -20 -17 0
v -20 -16 0
v -19 -16 0
v 0 -18 0
v -1 -18 0
v -1 -17 0
v 0 -17 0
v -1 -18 0
v -2 -18 0
v -2 -17 0
v -1 -17 0
v -2 -18 0
v -3 -18 0
v -3 -17 0
v -2 -17 0
v -3 -18 0
v -4 -18 0
v -4 -17 0
v -3 -17 0
v -4 -18 0
v -5 -18 0
v -5 -17 0
v -4 -17 0
v -5 -18 0
v -6 -18 0
v -6 -17 0
v -5 -17 0
v -6 -18 0
v -7 -18 0
v -7 -17 0
v -6 -17 0
v -7 -18 0
v -8 -18 0
v -8 -17 0
v -7 -17 0
v -8 -18 0
v -9 -18 0
v -9 -17 0
v -8 -17 0
v -9 -18 0
v -10 -18 0
v -10 -17 0
v -9 -17 0
v -10 -18 0
v -11 -18 0
v -11 -17 0
v -10 -17 0
v -11 -18 0
v -12 -18 0
v -12 -17 0
v -11 -17 0
v -12 -18 0
v -13 -18 0
v -13 -17 0
v -12 -17 0
v -13 -18 0
v -14 -18 0
v -14 -17 0
v -13 -17 0
v -14 -18 0
v -15 -18 0
v -15 -17 0
v -14 -17 0
v -15 -18 0
v -16 -18 0
v -16 -17 0
v -15 -17 0
v -16 -18 0
v -17 -18 0
v -17 -17 0
v -16 -17 0
v -17 -18 0
v -18 -18 0
v -18 -17 0
v -17 -17 0
v -18 -18 0
v -19 -18 0
v -19 -17 0
v -18 -17 0
v -19 -18 0
v -20 -18 0
v -20 -17 0
v -19 -17 0
v 0 -19 0
v -1 -19 0
v -1 -18 0
v 0 -18 0
v -1 -19 0
v -2 -19 0
v -2 -18 0
v -1 -18 0
v -2 -19 0
v -3 -19 0
v -3 -18 0
v -2 -18 0
v -3 -19 0
v -4 -19 0
v -4 -18 0
v -3 -18 0
v -4 -19 0
v -5 -19 0
v -5 -18 0
v -4 -18 0
v -5 -19 0
v -6 -19 0
v -6 -18 0
v -5 -18 0
v -6 -19 0
v -7 -19 0
v -7 -18 0
v -6 -18 0
v -7 -19 0
v -8 -19 0
v -8 -18 0
v -7 -18 0
v -8 -19 0
v -9 -19 0
v -9 -18 0
v -8 -18 0
v -9 -19 0
v -10 -19 0
v -10 -18 0
v -9 -18 0
v -10 -19 0
v -11 -19 0
v -11 -18 0
v -10 -18 0
v -11 -19 0
v -12 -19 0
v -12 -18 0
v -11 -18 0
v -12 -19 0
v -13 -19 0
v -13 -18 0
v -12 -18 0
v -13 -19 0
v -14 -19 0
v -14 -18 0
v -13 -18 0
v -14 -19 0
v -15 -19 0
v -15 -18 0
v -14 -18 0
v -15 -19 0
v -16 -19 0
v -16 -18 0
v -15 -18 0
v -16 -19 0
v -17 -19 0
v -17 -18 0
v -16 -18 0
v -17 -19 0
v -18 -19 0
v -18 -18 0
v -17 -18 0
v -18 -19 0
v -19 -19 0
v -19 -18 0
v -18 -18 0
v -19 -19 0
v -20 -19 0
v -20 -18 0
v -19 -18 0
v 0 -20 0
v -1 -20 0
v -1 -19 0
v 0 -19 0
v -1 -20 0
v -2 -20 0
v -2 -19 0
v -1 -19 0
v -2 -20 0
v -3 -20 0
v -3 -19 0
v -2 -19 0
v -3 -20 0
v -4 -20 0
v -4 -19 0
v -3 -19 0
v -4 -20 0
v -5 -20 0
v -5 -19 0
v -4 -19 0
v -5 -20 0
v -6 -20 0
v -6 -19 0
v -5 -19 0
v -6 -20 0
v -7 -20 0
v -7 -19 0
v -6 -19 0
v -7 -20 0
v -8 -20 0
v -8 -19 0
v -7 -19 0
v -8 -20 0
v -9 -20 0
v -9 -19 0
v -8 -19 0
v -9 -20 0
v -10 -20 0
v -10 -19 0
v -9 -19 0
v -10 -20 0
v -11 -20 0
v -11 -19 0
v -10 -19 0
v -11 -20 0
v -12 -20 0
v -12 -19 0
v -11 -19 0
v -12 -20 0
v -13 -20 0
v -13 -19 0
v -12 -19 0
v -13 -20 0
v -14 -20 0
v -14 -19 0
v -13 -19 0
v -14 -20 0
v -15 -20 0
v -15 -19 0
v -14 -19 0
v -15 -20 0
v -16 -20 0
v -16 -19 0
v -15 -19 0
v -16 -20 0
v -17 -20 0
v -17 -19 0
v -16 -19 0
v -17 -20 0
v -18 -20 0
v -18 -19 0
v -17 -19 0
v -18 -20 0
v -19 -20 0
v -19 -19 0
v -18 -19 0
v -19 -20 0
v -20 -20 0
v -20 -19 0
v -19 -19 0

# Texture cooridinates (Count = 16)
vt 0.6666667 0.3333333
vt 1 0.3333333
vt 1 0
vt 0.6666667 0
vt 0 0.3333333
vt 0.3333333 0.3333333
vt 0.3333333 0
vt 0 0
vt 0.6666667 0.6666666
vt 1 0.6666666
vt 0 0.6666666
vt 0.3333333 0.6666666
vt 0.6666667 1
vt 1 1
vt 0.3333333 1
vt 0 1

# Normal
vn 0 0 -1

# Mesh description
g Level_1-2_mesh_0002

# Faces
f 1/1/1 2/2/1 3/3/1 4/4/1
f 5/5/1 6/6/1 7/7/1 8/8/1
f 9/6/1 10/1/1 11/4/1 12/7/1
f 13/6/1 14/1/1 15/4/1 16/7/1
f 17/1/1 18/2/1 19/3/1 20/4/1
f 21/5/1 22/6/1 23/7/1 24/8/1
f 25/6/1 26/1/1 27/4/1 28/7/1
f 29/6/1 30/1/1 31/4/1 32/7/1
f 33/6/1 34/1/1 35/4/1 36/7/1
f 37/1/1 38/2/1 39/3/1 40/4/1
f 41/5/1 42/6/1 43/7/1 44/8/1
f 45/6/1 46/1/1 47/4/1 48/7/1
f 49/6/1 50/1/1 51/4/1 52/7/1
f 53/6/1 54/1/1 55/4/1 56/7/1
f 57/1/1 58/2/1 59/3/1 60/4/1
f 61/5/1 62/6/1 63/7/1 64/8/1
f 65/6/1 66/1/1 67/4/1 68/7/1
f 69/6/1 70/1/1 71/4/1 72/7/1
f 73/1/1 74/2/1 75/3/1 76/4/1
f 77/5/1 78/6/1 79/7/1 80/8/1
f 81/9/1 82/10/1 83/2/1 84/1/1
f 85/11/1 86/12/1 87/6/1 88/5/1
f 89/12/1 90/9/1 91/1/1 92/6/1
f 93/12/1 94/9/1 95/1/1 96/6/1
f 97/9/1 98/10/1 99/2/1 100/1/1
f 101/11/1 102/12/1 103/6/1 104/5/1
f 105/12/1 106/9/1 107/1/1 108/6/1
f 109/12/1 110/9/1 111/1/1 112/6/1
f 113/12/1 114/9/1 115/1/1 116/6/1
f 117/9/1 118/10/1 119/2/1 120/1/1
f 121/11/1 122/12/1 123/6/1 124/5/1
f 125/12/1 126/9/1 127/1/1 128/6/1
f 129/12/1 130/9/1 131/1/1 132/6/1
f 133/12/1 134/9/1 135/1/1 136/6/1
f 137/9/1 138/10/1 139/2/1 140/1/1
f 141/11/1 142/12/1 143/6/1 144/5/1
f 145/12/1 146/9/1 147/1/1 148/6/1
f 149/12/1 150/9/1 151/1/1 152/6/1
f 153/9/1 154/10/1 155/2/1 156/1/1
f 157/11/1 158/12/1 159/6/1 160/5/1
f 161/13/1 162/9/1 163/10/1 164/14/1
f 165/14/1 166/13/1 167/9/1 168/10/1
f 169/15/1 170/13/1 171/9/1 172/12/1
f 173/15/1 174/13/1 175/9/1 176/12/1
f 177/13/1 178/14/1 179/10/1 180/9/1
f 181/16/1 182/15/1 183/12/1 184/11/1
f 185/15/1 186/13/1 187/9/1 188/12/1
f 189/15/1 190/13/1 191/9/1 192/12/1
f 193/15/1 194/13/1 195/9/1 196/12/1
f 197/13/1 198/14/1 199/10/1 200/9/1
f 201/16/1 202/15/1 203/12/1 204/11/1
f 205/15/1 206/13/1 207/9/1 208/12/1
f 209/15/1 210/13/1 211/9/1 212/12/1
f 213/15/1 214/13/1 215/9/1 216/12/1
f 217/13/1 218/14/1 219/10/1 220/9/1
f 221/16/1 222/15/1 223/12/1 224/11/1
f 225/15/1 226/13/1 227/9/1 228/12/1
f 229/15/1 230/13/1 231/9/1 232/12/1
f 233/13/1 234/14/1 235/10/1 236/9/1
f 237/12/1 238/15/1 239/16/1 240/11/1
f 241/13/1 242/9/1 243/12/1 244/15/1
f 245/9/1 246/13/1 247/15/1 248/12/1
f 249/13/1 250/9/1 251/12/1 252/15/1
f 253/9/1 254/13/1 255/15/1 256/12/1
f 257/13/1 258/9/1 259/12/1 260/15/1
f 261/9/1 262/13/1 263/15/1 264/12/1
f 265/13/1 266/9/1 267/12/1 268/15/1
f 269/9/1 270/13/1 271/15/1 272/12/1
f 273/13/1 274/9/1 275/12/1 276/15/1
f 277/9/1 278/13/1 279/15/1 280/12/1
f 281/13/1 282/9/1 283/12/1 284/15/1
f 285/9/1 286/13/1 287/15/1 288/12/1
f 289/13/1 290/9/1 291/12/1 292/15/1
f 293/9/1 294/13/1 295/15/1 296/12/1
f 297/13/1 298/9/1 299/12/1 300/15/1
f 301/9/1 302/13/1 303/15/1 304/12/1
f 305/13/1 306/9/1 307/12/1 308/15/1
f 309/9/1 310/13/1 311/15/1 312/12/1
f 313/13/1 314/9/1 315/12/1 316/15/1
f 317/9/1 318/13/1 319/15/1 320/12/1
f 321/13/1 322/9/1 323/12/1 324/15/1
f 325/9/1 326/13/1 327/15/1 328/12/1
f 329/13/1 330/9/1 331/12/1 332/15/1
f 333/9/1 334/13/1 335/15/1 336/12/1
f 337/13/1 338/9/1 339/12/1 340/15/1
f 341/9/1 342/13/1 343/15/1 344/12/1
f 345/13/1 346/9/1 347/12/1 348/15/1
f 349/9/1 350/13/1 351/15/1 352/12/1
f 353/16/1 354/11/1 355/12/1 356/15/1
f 357/11/1 358/12/1 359/15/1 360/16/1
f 361/12/1 362/9/1 363/13/1 364/15/1
f 365/12/1 366/9/1 367/13/1 368/15/1
f 369/9/1 370/10/1 371/14/1 372/13/1
f 373/11/1 374/12/1 375/15/1 376/16/1
f 377/12/1 378/9/1 379/13/1 380/15/1
f 381/12/1 382/9/1 383/13/1 384/15/1
f 385/12/1 386/9/1 387/13/1 388/15/1
f 389/9/1 390/10/1 391/14/1 392/13/1
f 393/11/1 394/12/1 395/15/1 396/16/1
f 397/12/1 398/9/1 399/13/1 400/15/1
f 401/12/1 402/9/1 403/13/1 404/15/1
f 405/12/1 406/9/1 407/13/1 408/15/1
f 409/9/1 410/10/1 411/14/1 412/13/1
f 413/11/1 414/12/1 415/15/1 416/16/1
f 417/12/1 418/9/1 419/13/1 420/15/1
f 421/12/1 422/9/1 423/13/1 424/15/1
f 425/9/1 426/10/1 427/14/1 428/13/1
f 429/10/1 430/14/1 431/13/1 432/9/1
f 433/1/1 434/2/1 435/10/1 436/9/1
f 437/5/1 438/6/1 439/12/1 440/11/1
f 441/6/1 442/1/1 443/9/1 444/12/1
f 445/6/1 446/1/1 447/9/1 448/12/1
f 449/1/1 450/2/1 451/10/1 452/9/1
f 453/5/1 454/6/1 455/12/1 456/11/1
f 457/6/1 458/1/1 459/9/1 460/12/1
f 461/6/1 462/1/1 463/9/1 464/12/1
f 465/6/1 466/1/1 467/9/1 468/12/1
f 469/1/1 470/2/1 471/10/1 472/9/1
f 473/5/1 474/6/1 475/12/1 476/11/1
f 477/6/1 478/1/1 479/9/1 480/12/1
f 481/6/1 482/1/1 483/9/1 484/12/1
f 485/6/1 486/1/1 487/9/1 488/12/1
f 489/1/1 490/2/1 491/10/1 492/9/1
f 493/5/1 494/6/1 495/12/1 496/11/1
f 497/6/1 498/1/1 499/9/1 500/12/1
f 501/6/1 502/1/1 503/9/1 504/12/1
f 505/1/1 506/2/1 507/10/1 508/9/1
f 509/5/1 510/6/1 511/12/1 512/11/1
f 513/4/1 514/3/1 515/2/1 516/1/1
f 517/8/1 518/7/1 519/6/1 520/5/1
f 521/7/1 522/4/1 523/1/1 524/6/1
f 525/7/1 526/4/1 527/1/1 528/6/1
f 529/4/1 530/3/1 531/2/1 532/1/1
f 533/8/1 534/7/1 535/6/1 536/5/1
f 537/7/1 538/4/1 539/1/1 540/6/1
f 541/7/1 542/4/1 543/1/1 544/6/1
f 545/7/1 546/4/1 547/1/1 548/6/1
f 549/4/1 550/3/1 551/2/1 552/1/1
f 553/8/1 554/7/1 555/6/1 556/5/1
f 557/7/1 558/4/1 559/1/1 560/6/1
f 561/7/1 562/4/1 563/1/1 564/6/1
f 565/7/1 566/4/1 567/1/1 568/6/1
f 569/4/1 570/3/1 571/2/1 572/1/1
f 573/8/1 574/7/1 575/6/1 576/5/1
f 577/7/1 578/4/1 579/1/1 580/6/1
f 581/7/1 582/4/1 583/1/1 584/6/1
f 585/4/1 586/3/1 587/2/1 588/1/1
f 589/8/1 590/7/1 591/6/1 592/5/1

